<svg width="99" height="16" viewBox="0 0 99 16" fill="none" xmlns="http://www.w3.org/2000/svg">
<path d="M37.3577 0.896209L31.4767 15.5254H25.2166L19.3336 0.896209H25.5336L28.4756 8.73123L31.6317 0.896209H37.3577ZM18.9856 15.5254L13.1025 0.896209H6.84446L0.961426 15.5254H7.16147L10.1075 7.69536L13.2635 15.5304L18.9856 15.5254ZM41.0767 0.896209H47.1208V15.5254H41.0767V0.896209ZM58.5669 15.7943C57.326 15.7954 56.0887 15.6613 54.8768 15.3944C53.85 15.1942 52.8585 14.8427 51.9348 14.3515L53.5928 10.367C54.3426 10.8064 55.1539 11.1309 55.9998 11.3299C56.8822 11.556 57.789 11.6729 58.6999 11.6779C59.192 11.7056 59.6851 11.6467 60.1569 11.5039C60.2725 11.4725 60.375 11.405 60.4497 11.3114C60.5243 11.2177 60.5671 11.1026 60.5719 10.983C60.5719 10.751 60.3982 10.5907 60.0509 10.502C59.4902 10.3782 58.9225 10.2891 58.3508 10.235C57.3231 10.123 56.3043 9.93993 55.3018 9.68711C54.462 9.46244 53.6993 9.01304 53.0958 8.38727C52.7623 8.01453 52.5066 7.57897 52.3436 7.10612C52.1807 6.63328 52.1138 6.13266 52.1468 5.63362C52.138 4.71453 52.4396 3.81937 53.0028 3.09293C53.6726 2.27051 54.5564 1.64878 55.5568 1.29616C56.8625 0.82072 58.2457 0.593839 59.6349 0.627241C60.7252 0.625987 61.8132 0.729114 62.8839 0.935205C63.8273 1.10227 64.7415 1.40539 65.5979 1.83509L63.9399 5.81959C62.6476 5.1042 61.192 4.73561 59.7149 4.74973C58.3955 4.74973 57.7358 4.98303 57.7358 5.44964C57.7358 5.68161 57.9142 5.84659 58.2708 5.94458C58.7685 6.06499 59.2736 6.15184 59.7829 6.20454L59.9559 6.22554C60.9802 6.33629 61.9948 6.52413 62.9909 6.78747C63.825 7.02209 64.5819 7.47413 65.1839 8.09731C65.5174 8.47005 65.7731 8.90561 65.9361 9.37846C66.0991 9.85131 66.166 10.3519 66.1329 10.851C66.1355 11.7525 65.8339 12.6286 65.2769 13.3377C64.603 14.1603 63.7145 14.7805 62.7099 15.1294C61.3812 15.6054 59.9758 15.8309 58.5649 15.7943H58.5669ZM71.0269 0.896209H77.071V15.5254H71.0269V0.896209ZM90.4961 0.629244C92.0178 0.602801 93.5246 0.932539 94.8961 1.59212C96.1358 2.18668 97.183 3.11808 97.9181 4.27979C98.627 5.46359 99.0014 6.81752 99.0014 8.1973C99.0014 9.57707 98.627 10.931 97.9181 12.1148C97.181 13.2777 96.1346 14.2125 94.8961 14.8145C93.5233 15.4573 92.026 15.7906 90.5101 15.7906C88.9942 15.7906 87.4968 15.4573 86.1241 14.8145C84.8836 14.2103 83.8335 13.2763 83.089 12.1148C82.3718 10.9339 81.9925 9.57887 81.9925 8.1973C81.9925 6.81572 82.3718 5.46065 83.089 4.27979C83.8315 3.11949 84.8824 2.18884 86.1241 1.59212C87.4865 0.935386 88.9838 0.606332 90.4961 0.631243V0.629244ZM90.4961 5.33565C89.7256 5.30482 88.9731 5.57318 88.3961 6.08456C88.1158 6.35684 87.8976 6.68634 87.7563 7.0506C87.6149 7.41485 87.5538 7.80528 87.5771 8.1953C87.5545 8.58748 87.6159 8.97996 87.7571 9.34654C87.8984 9.71311 88.1162 10.0453 88.3961 10.321C88.9836 10.8132 89.7256 11.0828 90.4921 11.0828C91.2585 11.0828 92.0006 10.8132 92.5881 10.321C92.868 10.0454 93.0859 9.71315 93.2271 9.34657C93.3684 8.97999 93.4297 8.58749 93.4071 8.1953C93.4307 7.80496 93.3697 7.41413 93.2283 7.04951C93.087 6.68489 92.8686 6.35507 92.5881 6.08256C92.0125 5.57458 91.2633 5.30781 90.4961 5.33766V5.33565Z" fill="#0C1440"/>
</svg>
